<svg width="887" height="887" viewBox="0 0 887 887" fill="none" xmlns="http://www.w3.org/2000/svg">
<g clip-path="url(#clip0_2084_97)">
<path d="M341.814 57.085C339.984 55.9945 335.864 55.4361 332.66 55.8421C329.456 56.2482 325.444 57.9116 323.746 59.5401C322.047 61.1703 308.818 83.5206 294.347 109.209C279.877 134.901 255.104 178.767 239.3 206.692C223.495 234.615 202.82 271.16 193.358 287.903C183.894 304.645 175.357 320.754 174.387 323.7L172.621 329.055L199.051 374.558C224.07 417.631 225.416 420.304 224.258 424.595C223.584 427.088 190.499 486.401 150.734 556.401C75.4551 688.915 75.7031 688.41 81.2972 697.694C85.4305 704.554 91.3267 706.833 104.349 706.606C157.045 705.69 275.264 703.848 329.777 703.093C385.936 702.316 396.318 701.668 401.252 698.636C405.929 695.76 410.499 688.789 425.331 661.923C448.55 619.86 454.104 610.699 457.701 608.525C459.299 607.561 483.529 606.421 511.548 605.993C742.82 602.441 753.823 602.142 758.63 599.245C761.297 597.639 764.292 595.279 765.285 594.007C770.075 587.861 770.263 588.209 687.613 449.77C609.549 319.007 608.799 317.813 604.148 316.658C601.565 316.017 578.788 315.877 553.531 316.345C528.272 316.814 505.653 316.543 503.268 315.742C499.206 314.377 493.998 306.102 422.034 186.675C368.702 98.1675 344.122 58.4594 341.814 57.085ZM804.502 645.344C802.545 641.928 798.912 639.818 794.975 639.812L562.71 639.444C559.248 639.438 555.985 641.064 553.903 643.83L523.391 684.378C517.941 691.621 523.1 701.978 532.164 701.992L818.218 702.445C826.677 702.458 831.985 693.316 827.78 685.977L804.502 645.344ZM382.212 237.538C387.513 233.269 395.357 233.004 400.647 236.914C403.687 239.161 428.382 279.383 495.152 390.836L585.543 541.718L583.583 547.674C581.015 555.468 574.772 559.091 562.774 559.751C557.518 560.04 522.818 560.778 485.661 561.388C363.95 563.391 261.941 565.285 241.734 565.916C230.823 566.255 220.037 565.71 217.767 564.704C210.186 561.342 205.999 549.933 209.682 542.682C212.917 536.32 266.417 440.247 322.919 339.339C353.235 285.198 379.916 239.387 382.212 237.538ZM449.776 388.595C429.283 368.953 397.918 362.577 368.942 372.158C349.34 378.64 330.253 396.292 321.904 415.66C312.691 437.027 313.622 462.098 324.411 483.24C335.499 504.965 351.567 517.603 375.719 523.593C398.255 529.18 416.258 526.554 435.917 514.808C462.796 498.748 477.129 470.49 474.481 438.773C473.425 426.131 472.488 423.145 465.616 410.523C459.974 400.163 455.762 394.332 449.776 388.595Z" fill="black"/>
</g>
<defs>
<clipPath id="clip0_2084_97">
<rect width="887" height="887" fill="white"/>
</clipPath>
</defs>
</svg>
