<svg width="720" height="840" viewBox="0 0 720 840" fill="none" xmlns="http://www.w3.org/2000/svg">
<rect width="720" height="840" fill="white"/>
<path d="M360 59.7267L618.708 507.823H101.292L360 59.7267Z" fill="black"/>
<path d="M494.372 507.823C494.372 543.46 480.215 577.638 455.015 602.837C429.816 628.037 395.638 642.194 360 642.194C324.363 642.194 290.185 628.037 264.985 602.837C239.786 577.638 225.629 543.46 225.629 507.823L360 507.823H494.372Z" fill="black"/>
<circle cx="359.999" cy="726.234" r="54.0396" fill="black"/>
<path d="M494.372 506.637C494.372 471 480.215 436.822 455.015 411.622C429.816 386.423 395.638 372.266 360 372.266C324.363 372.266 290.185 386.423 264.985 411.622C239.786 436.822 225.629 470.999 225.629 506.637L360 506.637H494.372Z" fill="#FEFEFE"/>
<circle cx="359.999" cy="288.226" r="54.0396" fill="white"/>
</svg>
